<svg width="277" height="49" viewBox="0 0 277 49" fill="none" xmlns="http://www.w3.org/2000/svg">
<line y1="48.8" x2="276.036" y2="48.8" stroke="white" stroke-width="0.4"/>
<path d="M8.05155 33.6336L5.72662 7.55696H31.2734L28.9461 33.6295L18.4844 36.5297L8.05155 33.6336Z" fill="#E44D26"/>
<path d="M18.5 34.3129L26.9533 31.9692L28.9424 9.68938H18.5V34.3129Z" fill="#F16529"/>
<path d="M18.5 19.3608H14.2678L13.9759 16.0855H18.5V12.8873H10.4805L10.5568 13.7455L11.3431 22.5587H18.5V19.3608ZM18.5 27.6665L18.4858 27.6702L14.9243 26.7082L14.6965 24.1578H11.4859L11.9339 29.1794L18.4852 30.9982L18.5 30.9939V27.6665Z" fill="#EBEBEB"/>
<path d="M8.10358 0.470306H9.72869V2.07634H11.2156V0.470306H12.841V5.33291H11.2156V3.70463H9.72898V5.33291H8.10358V0.470306V0.470306ZM14.9781 2.08299H13.5472V0.470306H18.0349V2.08299H16.6035V5.33291H14.9781V2.08299V2.08299ZM18.7471 0.470306H20.4416L21.4843 2.17895L22.5258 0.470306H24.2211V5.33291H22.6021V2.92271L21.4843 4.65159H21.456L20.3373 2.92271V5.33291H18.7469V0.470306H18.7471ZM25.0302 0.470306H26.6559V3.72573H28.9415V5.3332H25.0302V0.470306V0.470306Z" fill="black"/>
<path d="M18.489 19.3608V22.5587H22.4272L22.056 26.7065L18.489 27.6694V30.9965L25.0455 29.1794L25.0935 28.6389L25.8451 20.2193L25.9231 19.3608H25.0611H18.489ZM18.489 12.8873V16.0855H26.2142L26.2781 15.3666L26.4241 13.7455L26.5007 12.8873H18.489Z" fill="white"/>
<path d="M84.097 1.69275H82.0203L84.18 4.10151V5.24822H79.7318V3.90552H81.8912L79.7318 1.49677V0.3489H84.097V1.69275ZM78.8498 1.69275H76.773L78.9327 4.10151V5.24822H74.4842V3.90552H76.6439L74.4842 1.49677V0.3489H78.8498V1.69275ZM73.6539 1.74767H71.4129V3.84945H73.6539V5.24822H69.8199V0.3489H73.6539V1.74767Z" fill="#131313"/>
<path d="M66.7662 33.7353L64.4889 7.4847H89.5109L87.2316 33.731L76.9845 36.6511L66.7662 33.7353V33.7353Z" fill="#1572B6"/>
<path d="M77.0003 34.4192L85.28 32.0599L87.228 9.63127H77.0003V34.4192Z" fill="#33A9DC"/>
<path d="M77 19.1417H81.1451L81.4317 15.845H77V12.6254H84.855L84.7799 13.4891L84.0102 22.361H77V19.1417Z" fill="white"/>
<path d="M77.0189 27.5031L77.0051 27.5072L73.5165 26.5388L73.2931 23.9711H70.149L70.5881 29.0262L77.0045 30.8568L77.0191 30.8525V27.5031H77.0189Z" fill="#EBEBEB"/>
<path d="M80.879 22.2249L80.5016 26.5365L77.0079 27.5057V30.8554L83.4297 29.0262L83.4769 28.4822L84.022 22.2249H80.879Z" fill="white"/>
<path d="M77.011 12.6254V15.8447H69.4445L69.3815 15.1211L69.2389 13.4891L69.1638 12.6254H77.011ZM77 19.142V22.3616H73.5555L73.4928 21.6381L73.3499 20.0057L73.2748 19.142H77Z" fill="#EBEBEB"/>
<path d="M135.324 3.54044C134.104 3.54622 132.939 3.64999 131.913 3.83152C128.892 4.36513 128.344 5.48207 128.344 7.54222V10.2626H135.482V11.1694H125.665C123.591 11.1694 121.774 12.4161 121.206 14.7887C120.551 17.5074 120.522 19.2042 121.206 22.043C121.713 24.1564 122.925 25.6618 125 25.6618H127.454V22.4006C127.454 20.0445 129.492 17.9664 131.913 17.9664H139.043C141.028 17.9664 142.612 16.332 142.612 14.3392V7.54251C142.612 5.60781 140.98 4.15469 139.043 3.83181C137.816 3.62773 136.544 3.53494 135.324 3.54044V3.54044ZM131.464 5.72835C132.201 5.72835 132.803 6.3403 132.803 7.09301C132.803 7.84255 132.201 8.44872 131.464 8.44872C130.724 8.44872 130.125 7.84255 130.125 7.09301C130.124 6.3403 130.724 5.72835 131.464 5.72835V5.72835Z" fill="url(#paint0_linear_48_38)"/>
<path d="M143.502 11.1694V14.3392C143.502 16.7963 141.418 18.8645 139.043 18.8645H131.913C129.96 18.8645 128.344 20.5362 128.344 22.492V29.2893C128.344 31.2234 130.026 32.3614 131.913 32.9161C134.172 33.5801 136.339 33.7003 139.043 32.9161C140.84 32.3955 142.611 31.3485 142.611 29.2893V26.5686H135.482V25.6615H146.181C148.255 25.6615 149.029 24.2148 149.75 22.0427C150.495 19.8068 150.463 17.6565 149.75 14.7884C149.237 12.7231 148.258 11.1691 146.181 11.1691H143.502V11.1694ZM139.492 28.3822C140.232 28.3822 140.831 28.9883 140.831 29.7385C140.831 30.4906 140.232 31.1025 139.492 31.1025C138.755 31.1025 138.152 30.4906 138.152 29.7385C138.152 28.9883 138.755 28.3822 139.492 28.3822V28.3822Z" fill="url(#paint1_linear_48_38)"/>
<path opacity="0.444" d="M145.128 34.571C145.128 35.5952 140.846 36.4256 135.563 36.4256C130.28 36.4256 125.997 35.5952 125.997 34.571C125.997 33.5466 130.28 32.7161 135.563 32.7161C140.846 32.7161 145.128 33.5463 145.128 34.571Z" fill="url(#paint2_radial_48_38)"/>
<path d="M208.456 8.87422L194.872 0.838284C194.647 0.693753 194.338 0.635941 194 0.635941C193.662 0.635941 193.353 0.722659 193.128 0.838284L179.628 8.90313C179.15 9.19219 178.812 9.91485 178.812 10.4641V26.5649C178.812 26.8828 178.869 27.2586 179.094 27.5766L209.131 9.65469C208.963 9.30782 208.709 9.04766 208.456 8.87422V8.87422Z" fill="#659AD3"/>
<path d="M179.009 27.5477C179.15 27.7789 179.347 27.9812 179.544 28.0969L193.1 36.1617C193.325 36.3063 193.634 36.3641 193.972 36.3641C194.309 36.3641 194.619 36.2773 194.844 36.1617L208.344 28.0969C208.822 27.8078 209.159 27.0852 209.159 26.5359V10.4352C209.159 10.175 209.131 9.88593 208.991 9.62578L179.009 27.5477V27.5477Z" fill="#03599C"/>
<path d="M199.991 21.9977C198.809 24.1367 196.559 25.582 194 25.582C190.203 25.582 187.109 22.4023 187.109 18.5C187.109 14.5977 190.203 11.418 194 11.418C196.559 11.418 198.809 12.8633 199.991 15.0312L203.647 12.8633C201.734 9.42344 198.134 7.08203 194 7.08203C187.869 7.08203 182.891 12.1984 182.891 18.5C182.891 24.8016 187.869 29.918 194 29.918C198.106 29.918 201.706 27.6055 203.619 24.1945L199.991 21.9977V21.9977Z" fill="white"/>
<path fill-rule="evenodd" clip-rule="evenodd" d="M248.524 12.0296C247.46 11.7622 246.394 11.8481 245.269 12.0233C245.269 13.9903 245.265 15.9045 245.28 17.819C245.281 17.917 245.428 18.0875 245.523 18.1005C246.75 18.2661 247.97 18.2794 249.117 17.7204C250.303 17.1423 250.908 15.9334 250.751 14.5141C250.609 13.2217 249.844 12.3612 248.524 12.0296V12.0296ZM270.711 18.4893V0.94957C270.711 0.343695 270.718 0.289062 270.129 0.289062H235.006C234.434 0.289062 234.289 0.343984 234.289 0.920953V36.0446C234.289 36.628 234.362 36.6288 234.928 36.6288C246.651 36.6291 258.408 36.6262 270.131 36.6395C270.586 36.6401 270.708 36.519 270.707 36.0733C270.691 30.2119 270.711 24.35 270.711 18.4893V18.4893ZM250.289 20.1774C248.683 20.7504 247.008 20.7824 245.273 20.648V27.1719H242.094V26.7666C242.094 21.3048 242.069 15.8435 242.053 10.382C242.052 9.92843 242.124 9.70932 242.635 9.65729C245.043 9.41101 247.438 9.13409 249.833 9.69573C252.407 10.299 253.892 12.001 254.004 14.3525C254.144 17.2645 252.864 19.2591 250.289 20.1774V20.1774ZM263.098 23.8641C262.975 25.5323 262.034 26.6276 260.492 27.1571C258.427 27.8659 256.374 27.7014 254.356 26.8996C254.026 26.7681 253.962 26.6016 254.071 26.2648C254.27 25.6502 254.415 25.0184 254.568 24.4477C255.421 24.6981 256.232 25.0106 257.073 25.1583C257.666 25.2626 258.308 25.2013 258.911 25.1068C259.452 25.0218 259.841 24.6547 259.929 24.0743C260.02 23.4843 259.842 22.9732 259.321 22.6593C258.907 22.4101 258.451 22.2318 258.014 22.0228C257.31 21.6866 256.561 21.423 255.912 21.0024C253.359 19.347 254.19 16.2667 255.894 15.1067C256.805 14.4864 257.814 14.2112 258.893 14.1733C260.163 14.1288 261.386 14.3479 262.587 14.9315L261.953 17.183C261.45 17.005 260.981 16.7737 260.487 16.6818C259.901 16.5725 259.285 16.5115 258.693 16.5598C257.9 16.6249 257.435 17.1726 257.435 17.8519C257.435 18.2543 257.588 18.5948 257.923 18.7899C258.405 19.07 258.916 19.301 259.422 19.5354C259.97 19.7889 260.549 19.9838 261.076 20.2731C262.484 21.0449 263.217 22.2387 263.098 23.8641Z" fill="#80B5E2"/>
<defs>
<linearGradient id="paint0_linear_48_38" x1="119.988" y1="4.39104" x2="136.451" y2="18.4308" gradientUnits="userSpaceOnUse">
<stop stop-color="#5A9FD4"/>
<stop offset="1" stop-color="#306998"/>
</linearGradient>
<linearGradient id="paint1_linear_48_38" x1="142.645" y1="27.1581" x2="136.741" y2="18.8787" gradientUnits="userSpaceOnUse">
<stop stop-color="#FFD43B"/>
<stop offset="1" stop-color="#FFE873"/>
</linearGradient>
<radialGradient id="paint2_radial_48_38" cx="0" cy="0" r="1" gradientUnits="userSpaceOnUse" gradientTransform="translate(135.524 34.5179) rotate(-90) scale(1.85529 8.15557)">
<stop stop-color="#B8B8B8" stop-opacity="0.498"/>
<stop offset="1" stop-color="#7F7F7F" stop-opacity="0"/>
</radialGradient>
</defs>
</svg>
